<mxfile host="app.diagrams.net" modified="2020-10-22T23:41:45.031Z" agent="5.0 (Windows)" etag="R4qdJlFDuZ2_btKglsj5" version="13.8.1" type="github">
  <diagram id="kgpKYQtTHZ0yAKxKKP6v" name="Page-1">
    <mxGraphModel dx="834" dy="427" grid="1" gridSize="10" guides="1" tooltips="1" connect="1" arrows="1" fold="1" page="1" pageScale="1" pageWidth="850" pageHeight="1100" math="0" shadow="0">
      <root>
        <mxCell id="0" />
        <mxCell id="1" parent="0" />
        <mxCell id="3nuBFxr9cyL0pnOWT2aG-5" value=":Emprétismo" style="shape=umlLifeline;perimeter=lifelinePerimeter;container=1;collapsible=0;recursiveResize=0;rounded=0;shadow=0;strokeWidth=1;" parent="1" vertex="1">
          <mxGeometry x="410" y="60" width="100" height="240" as="geometry" />
        </mxCell>
        <mxCell id="3nuBFxr9cyL0pnOWT2aG-6" value="" style="points=[];perimeter=orthogonalPerimeter;rounded=0;shadow=0;strokeWidth=1;" parent="3nuBFxr9cyL0pnOWT2aG-5" vertex="1">
          <mxGeometry x="45" y="80" width="10" height="160" as="geometry" />
        </mxCell>
        <mxCell id="3nuBFxr9cyL0pnOWT2aG-8" value="cadastroLivro()" style="verticalAlign=bottom;endArrow=block;entryX=0;entryY=0;shadow=0;strokeWidth=1;exitX=1.229;exitY=0.005;exitDx=0;exitDy=0;exitPerimeter=0;" parent="1" source="J5ACFkRA8v3-ju2rpxKX-5" target="3nuBFxr9cyL0pnOWT2aG-6" edge="1">
          <mxGeometry relative="1" as="geometry">
            <mxPoint x="285" y="430" as="sourcePoint" />
          </mxGeometry>
        </mxCell>
        <mxCell id="3nuBFxr9cyL0pnOWT2aG-9" value="emiteComprovante()" style="verticalAlign=bottom;endArrow=block;shadow=0;strokeWidth=1;" parent="1" source="3nuBFxr9cyL0pnOWT2aG-6" edge="1">
          <mxGeometry relative="1" as="geometry">
            <mxPoint x="250" y="470" as="sourcePoint" />
            <mxPoint x="252" y="170" as="targetPoint" />
          </mxGeometry>
        </mxCell>
        <mxCell id="3nuBFxr9cyL0pnOWT2aG-10" value="disponíbilidadeEmprestimo()" style="verticalAlign=bottom;endArrow=open;dashed=1;endSize=8;shadow=0;strokeWidth=1;exitX=0.943;exitY=0.901;exitDx=0;exitDy=0;exitPerimeter=0;" parent="1" source="J5ACFkRA8v3-ju2rpxKX-5" target="3nuBFxr9cyL0pnOWT2aG-6" edge="1">
          <mxGeometry relative="1" as="geometry">
            <mxPoint x="250" y="527" as="targetPoint" />
          </mxGeometry>
        </mxCell>
        <mxCell id="J5ACFkRA8v3-ju2rpxKX-2" value="" style="html=1;points=[];perimeter=orthogonalPerimeter;" vertex="1" parent="1">
          <mxGeometry x="100" y="140" width="10" height="220" as="geometry" />
        </mxCell>
        <mxCell id="J5ACFkRA8v3-ju2rpxKX-3" value="Bibliotecário" style="shape=umlLifeline;participant=umlActor;perimeter=lifelinePerimeter;whiteSpace=wrap;html=1;container=1;collapsible=0;recursiveResize=0;verticalAlign=top;spacingTop=36;outlineConnect=0;" vertex="1" parent="1">
          <mxGeometry x="95" y="60" width="20" height="80" as="geometry" />
        </mxCell>
        <mxCell id="J5ACFkRA8v3-ju2rpxKX-5" value="" style="html=1;points=[];perimeter=orthogonalPerimeter;" vertex="1" parent="1">
          <mxGeometry x="240" y="140" width="10" height="100" as="geometry" />
        </mxCell>
        <mxCell id="J5ACFkRA8v3-ju2rpxKX-6" value="recebimentoLivroNovos()" style="html=1;verticalAlign=bottom;startArrow=oval;endArrow=block;startSize=8;" edge="1" target="J5ACFkRA8v3-ju2rpxKX-5" parent="1" source="J5ACFkRA8v3-ju2rpxKX-3">
          <mxGeometry relative="1" as="geometry">
            <mxPoint x="180" y="140" as="sourcePoint" />
          </mxGeometry>
        </mxCell>
        <mxCell id="J5ACFkRA8v3-ju2rpxKX-7" value=":cadastrolivro" style="html=1;" vertex="1" parent="1">
          <mxGeometry x="190" y="40" width="110" height="50" as="geometry" />
        </mxCell>
        <mxCell id="J5ACFkRA8v3-ju2rpxKX-8" value="" style="endArrow=none;dashed=1;html=1;entryX=0.5;entryY=1;entryDx=0;entryDy=0;" edge="1" parent="1" source="J5ACFkRA8v3-ju2rpxKX-5" target="J5ACFkRA8v3-ju2rpxKX-7">
          <mxGeometry width="50" height="50" relative="1" as="geometry">
            <mxPoint x="245" y="140" as="sourcePoint" />
            <mxPoint x="240" y="205" as="targetPoint" />
          </mxGeometry>
        </mxCell>
        <mxCell id="J5ACFkRA8v3-ju2rpxKX-10" value="dtEntrega()" style="endArrow=open;endSize=12;dashed=1;html=1;entryX=0.886;entryY=0.547;entryDx=0;entryDy=0;entryPerimeter=0;" edge="1" parent="1" source="3nuBFxr9cyL0pnOWT2aG-5" target="J5ACFkRA8v3-ju2rpxKX-2">
          <mxGeometry x="0.0238" width="160" relative="1" as="geometry">
            <mxPoint x="220" y="260" as="sourcePoint" />
            <mxPoint x="380" y="260" as="targetPoint" />
            <Array as="points">
              <mxPoint x="280" y="260" />
            </Array>
            <mxPoint as="offset" />
          </mxGeometry>
        </mxCell>
        <mxCell id="J5ACFkRA8v3-ju2rpxKX-13" value="validarEmprestimo()" style="verticalAlign=bottom;endArrow=block;shadow=0;strokeWidth=1;exitX=1.286;exitY=0.564;exitDx=0;exitDy=0;exitPerimeter=0;" edge="1" parent="1" source="J5ACFkRA8v3-ju2rpxKX-5" target="3nuBFxr9cyL0pnOWT2aG-5">
          <mxGeometry relative="1" as="geometry">
            <mxPoint x="260" y="180" as="sourcePoint" />
            <mxPoint x="250" y="200" as="targetPoint" />
          </mxGeometry>
        </mxCell>
      </root>
    </mxGraphModel>
  </diagram>
</mxfile>
